<?xml version="1.0" encoding="UTF-8" standalone="no"?>
<!DOCTYPE svg PUBLIC "-//W3C//DTD SVG 1.1//EN" "http://www.w3.org/Graphics/SVG/1.1/DTD/svg11.dtd">
<svg version="1.1" xmlns="http://www.w3.org/2000/svg" xmlns:xlink="http://www.w3.org/1999/xlink" preserveAspectRatio="xMidYMid meet" viewBox="0 0 640 640" width="640" height="640"><defs><path d="M163.89 239.62L480.38 239.62L480.38 519.45L163.89 519.45L163.89 239.62Z" id="a1NAK6CNSF"></path><path d="M163.89 274.38L480.38 274.38L480.38 317.8L163.89 317.8L163.89 274.38Z" id="e4p3eOI1aY"></path><path d="M576.97 202.57C576.97 254.18 464.85 296.09 326.75 296.09C188.65 296.09 76.53 254.18 76.53 202.57C76.53 150.96 188.65 109.06 326.75 109.06C464.85 109.06 576.97 150.96 576.97 202.57Z" id="f1aGGIekX"></path><path d="M484.05 197.48C484.05 227.42 414.96 251.73 329.86 251.73C244.76 251.73 175.68 227.42 175.68 197.48C175.68 167.54 244.76 143.23 329.86 143.23C414.96 143.23 484.05 167.54 484.05 197.48Z" id="h5eN4waWcT"></path></defs><g><g><g><use xlink:href="#a1NAK6CNSF" opacity="1" fill="#000000" fill-opacity="1"></use></g><g><use xlink:href="#e4p3eOI1aY" opacity="1" fill="#eef3f2" fill-opacity="1"></use></g><g><use xlink:href="#f1aGGIekX" opacity="1" fill="#000000" fill-opacity="1"></use></g><g><use xlink:href="#h5eN4waWcT" opacity="1" fill="#ffffff" fill-opacity="1"></use></g></g></g></svg>